<svg width="221" height="26" viewBox="0 0 221 26" fill="none" xmlns="http://www.w3.org/2000/svg">
<g clip-path="url(#clip0_2499_7109)">
<g clip-path="url(#clip1_2499_7109)">
<g clip-path="url(#clip2_2499_7109)">
<path d="M-77.0449 14.0153L-78.9896 8.72641H-86.4452L-88.3899 14.0153H-93.75L-84.5382 -9.59607H-80.6111L-71.3939 14.0153H-77.0503H-77.0449ZM-82.0009 -0.0470495C-82.2218 -0.671802 -82.5127 -1.44197 -82.6959 -2.21214H-82.7713C-82.9544 -1.44197 -83.213 -0.634101 -83.4339 -0.0470495L-85.0123 4.28313H-80.4225L-82.0009 -0.0470495ZM-47.0015 14.0153L-47.7719 5.38722C-47.8796 4.10001 -47.9928 2.55968 -47.9928 1.05704H-48.0682C-48.6176 2.52736 -49.388 4.1431 -50.0506 5.46262L-54.4572 14.0907H-56.7359L-61.2179 5.46262C-61.9128 4.1431 -62.6131 2.59738 -63.2003 1.09474H-63.2757C-63.2757 2.59738 -63.3511 4.1431 -63.4589 5.3926L-64.1915 14.0206H-69.4815L-67.4614 -9.40756H-62.7585L-57.6517 0.432287C-56.919 1.86491 -55.9278 3.88458 -55.3029 5.42492H-55.2652C-54.678 3.88458 -53.7622 1.97262 -52.9865 0.432287L-47.9173 -9.40756H-43.5108L-41.4529 14.0206H-46.9962L-47.0015 14.0153ZM-29.3322 14.0153H-37.9999V-9.41295H-30.3234C-26.6871 -9.41295 -23.4549 -7.02704 -23.4549 -3.20851C-23.4549 -1.81359 -24.1553 -0.0524349 -25.3997 0.647718C-23.3418 1.31017 -21.3217 3.73378 -21.3217 6.70674C-21.3217 11.2577 -24.9202 14.0153 -29.3268 14.0153H-29.3322ZM-31.2068 -5.19048H-32.8984V-0.380968H-31.2068C-29.8493 -0.380968 -28.5995 -1.07574 -28.5995 -2.76688C-28.5995 -4.45802 -29.8493 -5.19048 -31.2068 -5.19048ZM-30.2857 3.73378H-32.893V9.8682H-30.2857C-28.5618 9.8682 -26.7949 8.95262 -26.7949 6.81984C-26.7949 4.68707 -28.5187 3.73378 -30.2857 3.73378ZM-17.5077 14.0153V-9.41295H-11.8136V14.0153H-17.5077ZM-7.29391 14.0153V-9.41295H-1.59985V9.35116H7.21329V14.0153H-7.29391ZM10.1169 14.0153V-9.41295H15.811V14.0153H10.1169ZM32.5915 14.5646C26.1271 14.5646 19.5926 10.3422 19.5926 2.30116C19.5926 -5.73984 26.2779 -10 32.4837 -10C35.716 -10 38.5064 -9.11673 40.0848 -8.05573L39.0182 -3.35393C37.5853 -4.30721 35.382 -5.00737 33.0709 -5.00737C28.8098 -5.00737 25.249 -2.17982 25.249 2.48427C25.249 6.85216 28.6266 9.7551 32.8501 9.7551C34.2076 9.7551 35.2365 9.53428 36.0446 9.06033V5.34952H31.9666V0.981637H41.2592V12.1464C39.2768 13.7244 36.4109 14.57 32.5915 14.57V14.5646ZM59.8821 14.0153V4.72477H50.8481V14.0153H45.154V-9.41295H50.8481V-0.197851H59.8821V-9.41295H65.5761V14.0153H59.8821ZM80.5251 -4.74885V14.0153H74.831V-4.74885H68.108V-9.41295H87.2427V-4.74885H80.5197H80.5251ZM108.769 0.060667H103.479V8.90953C103.479 10.8161 104.47 11.4786 106.232 11.4786C106.819 11.4786 107.336 11.4032 107.74 11.2577L107.444 13.9022C107.002 14.123 106.27 14.1984 105.607 14.1984C102.596 14.1984 100.172 12.4749 100.172 9.24345V0.0660524H96.9016V-2.61607H100.172V-5.99297L103.479 -7.71642V-2.61069H109.356L108.769 0.0714388V0.060667ZM119.274 14.3061H117.916L110.972 -2.62146H114.35L117.399 4.79478C117.841 5.86117 118.315 7.32611 118.719 8.57561H118.794C119.198 7.32611 119.678 5.86117 120.12 4.79478L123.131 -2.62146H126.25L119.274 14.3061Z" fill="white"/>
</g>
</g>
<path d="M16.9551 24.734L15.0104 19.4452H7.55478L5.61007 24.734H0.25L9.46178 1.12268H13.3889L22.6061 24.734H16.9497H16.9551ZM11.9991 10.6717C11.7782 10.0469 11.4873 9.27678 11.3041 8.50661H11.2287C11.0456 9.27678 10.787 10.0846 10.5661 10.6717L8.98773 15.0019H13.5775L11.9991 10.6717ZM46.9985 24.734L46.2281 16.106C46.1204 14.8188 46.0072 13.2784 46.0072 11.7758H45.9318C45.3824 13.2461 44.612 14.8618 43.9494 16.1814L39.5428 24.8094H37.2641L32.7821 16.1814C32.0872 14.8618 31.3869 13.3161 30.7997 11.8135H30.7243C30.7243 13.3161 30.6489 14.8618 30.5411 16.1114L29.8085 24.7394H24.5185L26.5386 1.31119H31.2415L36.3483 11.151C37.081 12.5837 38.0722 14.6033 38.6971 16.1437H38.7348C39.322 14.6033 40.2378 12.6914 41.0135 11.151L46.0827 1.31119H50.4892L52.5471 24.7394H47.0038L46.9985 24.734ZM64.6678 24.734H56.0001V1.3058H63.6766C67.3129 1.3058 70.5451 3.69171 70.5451 7.51024C70.5451 8.90516 69.8447 10.6663 68.6003 11.3665C70.6582 12.0289 72.6783 14.4525 72.6783 17.4255C72.6783 21.9765 69.0798 24.734 64.6732 24.734H64.6678ZM62.7932 5.52827H61.1016V10.3378H62.7932C64.1507 10.3378 65.4005 9.64301 65.4005 7.95187C65.4005 6.26073 64.1507 5.52827 62.7932 5.52827ZM63.7143 14.4525H61.107V20.587H63.7143C65.4382 20.587 67.2051 19.6714 67.2051 17.5386C67.2051 15.4058 65.4813 14.4525 63.7143 14.4525ZM76.4923 24.734V1.3058H82.1864V24.734H76.4923ZM86.7061 24.734V1.3058H92.4002V20.0699H101.213V24.734H86.7061ZM104.117 24.734V1.3058H109.811V24.734H104.117ZM126.591 25.2834C120.127 25.2834 113.593 21.0609 113.593 13.0199C113.593 4.97891 120.278 0.71875 126.484 0.71875C129.716 0.71875 132.506 1.60202 134.085 2.66302L133.018 7.36482C131.585 6.41154 129.382 5.71138 127.071 5.71138C122.81 5.71138 119.249 8.53893 119.249 13.203C119.249 17.5709 122.627 20.4738 126.85 20.4738C128.208 20.4738 129.237 20.253 130.045 19.7791V16.0683H125.967V11.7004H135.259V22.8651C133.277 24.4432 130.411 25.2887 126.591 25.2887V25.2834ZM153.882 24.734V15.4435H144.848V24.734H139.154V1.3058H144.848V10.5209H153.882V1.3058H159.576V24.734H153.882ZM174.525 5.9699V24.734H168.831V5.9699H162.108V1.3058H181.243V5.9699H174.52H174.525ZM202.769 10.7794H197.479V19.6283C197.479 21.5349 198.47 22.1973 200.232 22.1973C200.819 22.1973 201.336 22.1219 201.74 21.9765L201.444 24.6209C201.002 24.8417 200.27 24.9171 199.607 24.9171C196.596 24.9171 194.172 23.1937 194.172 19.9622V10.7848H190.902V8.10268H194.172V4.72578L197.479 3.00233V8.10806H203.356L202.769 10.7902V10.7794ZM213.274 25.0248H211.916L204.972 8.09729H208.35L211.399 15.5135C211.841 16.5799 212.315 18.0449 212.719 19.2944H212.794C213.198 18.0449 213.678 16.5799 214.12 15.5135L217.131 8.09729H220.25L213.274 25.0248Z" fill="white"/>
</g>
<defs>
<clipPath id="clip0_2499_7109">
<rect width="220" height="24.57" fill="white" transform="translate(0.25 0.71875)"/>
</clipPath>
<clipPath id="clip1_2499_7109">
<rect width="220" height="24.57" fill="white" transform="translate(0.25 0.71875)"/>
</clipPath>
<clipPath id="clip2_2499_7109">
<rect width="220" height="24.57" fill="white" transform="translate(-93.75 -10)"/>
</clipPath>
</defs>
</svg>
