<svg width="11" height="12" viewBox="0 0 11 12" fill="none" xmlns="http://www.w3.org/2000/svg">
<g clip-path="url(#clip0_2478_4867)">
<path d="M6.445 7.36312H7.25V4.01562H3.83V4.80312H5.88125L1.375 9.17437L1.97875 9.76562L6.445 5.35437V7.36312Z" fill="white"/>
<path d="M9.37495 2.01574C8.3545 0.983914 6.96613 0.399435 5.51495 0.390741C4.79503 0.385986 4.08164 0.527576 3.41811 0.806916C2.75457 1.08626 2.15471 1.49752 1.65495 2.01574C-0.0925473 3.76574 -0.500047 6.31699 0.638703 8.46824L1.37495 8.10324C0.905775 7.22027 0.735377 6.20904 0.889295 5.22107C1.04321 4.23311 1.51316 3.32164 2.2287 2.62324C2.64464 2.18015 3.14863 1.82893 3.70833 1.59213C4.26803 1.35533 4.87106 1.2382 5.4787 1.24824C6.09192 1.2419 6.70001 1.36055 7.26587 1.59695C7.83173 1.83335 8.34349 2.18255 8.76995 2.62324C9.20448 3.05357 9.54965 3.56554 9.78563 4.12973C10.0216 4.69392 10.1437 5.29919 10.145 5.91074C10.1476 6.52306 10.0273 7.12968 9.79113 7.69462C9.55493 8.25956 9.20767 8.7713 8.76995 9.19949C8.06515 9.90636 7.15334 10.3701 6.16698 10.5234C5.18061 10.6767 4.17106 10.5116 3.28495 10.052L2.95995 10.782C3.75201 11.1827 4.6273 11.3913 5.51495 11.3907C6.23368 11.3875 6.94469 11.2423 7.60712 10.9634C8.26954 10.6846 8.87033 10.2775 9.37495 9.76574C10.4058 8.74667 10.9902 7.36024 11 5.91074C10.9833 4.45093 10.4007 3.05455 9.37495 2.01574Z" fill="white"/>
</g>
<defs>
<clipPath id="clip0_2478_4867">
<rect width="11" height="11" fill="white" transform="translate(0 0.390625)"/>
</clipPath>
</defs>
</svg>
