<svg width="166" height="60" viewBox="0 0 166 60" fill="none" xmlns="http://www.w3.org/2000/svg">
<path d="M0.75 42.8846C0.75 47.2771 2.11216 51.1411 5.48866 54.0391C9.7726 57.7923 15.2981 59.8197 20.9925 59.7278C28.7609 59.7278 36.4798 56.6069 42.5228 54.1877C52.6936 50.1008 165.167 1.25557 165.167 1.25557C166.248 0.71064 166.042 0.0336102 164.688 0.372125L42.2504 33.5466C39.9394 34.1986 37.5518 34.5401 35.1507 34.5621C25.7889 34.6199 17.4509 29.4184 17.5169 18.4455C17.5169 14.1604 18.8626 8.99187 21.9006 2.90686C11.1602 15.5392 0.857322 31.1852 0.75 42.8846Z" fill="white"/>
</svg>
