<svg width="207" height="63" viewBox="0 0 207 63" fill="none" xmlns="http://www.w3.org/2000/svg">
<g clip-path="url(#clip0_2499_7114)">
<g clip-path="url(#clip1_2499_7114)">
<g clip-path="url(#clip2_2499_7114)">
<path d="M135.856 -42.9999C78.9025 -43.6608 30.8621 -30.3385 28.5469 -13.2247C26.2317 3.88905 70.6836 18.3244 127.637 18.9853C184.591 19.681 232.632 6.32394 234.831 -10.7898C237.146 -27.8688 192.81 -42.3042 135.856 -42.9999ZM179.382 2.46291C178.109 3.15859 175.562 3.47165 173.131 3.36729C172.437 3.36729 171.626 3.26294 170.932 3.15859C157.272 0.828056 142.455 -0.702442 126.711 -1.36334C111.084 -2.02424 95.3404 -1.78075 80.0601 -0.66766C76.7031 -0.424171 73.4618 -1.05029 72.6515 -2.02424C71.8412 -3.03298 73.9248 -4.00693 77.1661 -4.25042C93.9513 -5.46786 111.2 -5.71135 128.448 -5.01567C145.696 -4.2852 162.018 -2.61557 177.067 -0.0415459C180.077 0.480217 181.003 1.5933 179.382 2.49769M193.042 -5.67657C190.958 -4.49391 186.096 -4.0765 182.16 -4.70261C166.186 -7.31142 148.937 -9.01583 130.763 -9.78109C112.589 -10.5463 94.4143 -10.3376 76.7031 -9.15498C75.777 -9.08541 74.7352 -9.08541 73.9248 -9.15498C70.6836 -9.29411 67.9053 -10.0246 67.2108 -11.0333C66.2847 -12.3203 68.9472 -13.6073 73.346 -13.8856C92.9095 -15.1726 113.052 -15.4161 133.078 -14.5813C153.105 -13.7465 172.205 -11.8681 189.801 -8.98105C193.736 -8.35494 195.126 -6.89401 193.042 -5.71135M207.975 -14.8596C206.007 -13.7117 201.84 -13.1204 197.904 -13.2943C196.862 -13.3291 195.704 -13.4334 194.778 -13.6073C176.141 -16.4944 156.114 -18.4423 135.278 -19.3119C114.441 -20.1815 93.3725 -20.0076 72.883 -18.7554C67.558 -18.4423 62.3488 -19.4511 61.307 -21.0859C60.2652 -22.686 63.6222 -24.2513 69.0629 -24.5643C91.7519 -25.9557 115.02 -26.1644 138.172 -25.1904C161.324 -24.2165 183.434 -22.0946 204.039 -18.8597C208.901 -18.0945 210.753 -16.3205 208.206 -14.8596" fill="white"/>
</g>
</g>
<path d="M49.5704 28.5808C39.6034 22.6627 23.1631 22.1185 13.6484 25.0058C12.1201 25.4694 10.5044 24.6067 10.0417 23.0794C9.81894 22.3455 9.89685 21.5532 10.2583 20.8767C10.6197 20.2002 11.2351 19.6949 11.9691 19.4719C22.8917 16.1572 41.0482 16.7973 52.5224 23.6073C52.849 23.8012 53.1342 24.0574 53.3618 24.3614C53.5893 24.6654 53.7547 25.0113 53.8485 25.3792C53.9424 25.7471 53.9628 26.13 53.9087 26.5058C53.8545 26.8816 53.7269 27.2431 53.533 27.5696C52.7178 28.9437 50.9414 29.3966 49.5704 28.5808ZM49.244 37.3463C48.5447 38.4807 47.0612 38.8366 45.928 38.14C37.6188 33.0329 24.9476 31.5537 15.1168 34.5373C14.5049 34.7224 13.8445 34.6573 13.2805 34.3562C12.7165 34.0552 12.2949 33.5428 12.1083 32.9314C11.9237 32.3197 11.9892 31.6597 12.2906 31.0962C12.592 30.5327 13.1046 30.1118 13.7159 29.9256C24.9461 26.5182 38.9071 28.1684 48.4509 34.0326C49.5841 34.7303 49.9408 36.2144 49.244 37.3463ZM45.4605 45.7644C45.3289 45.9807 45.1558 46.1689 44.9513 46.3182C44.7468 46.4676 44.5148 46.5751 44.2686 46.6347C44.0225 46.6942 43.767 46.7047 43.5168 46.6654C43.2666 46.6261 43.0266 46.5378 42.8106 46.4056C35.5496 41.9686 26.4104 40.9667 15.6474 43.4246C15.4007 43.481 15.1454 43.4883 14.8959 43.4461C14.6465 43.4038 14.4078 43.3128 14.1935 43.1783C13.9792 43.0437 13.7936 42.8683 13.6471 42.662C13.5007 42.4557 13.3963 42.2226 13.3401 41.976C13.2834 41.7293 13.276 41.4739 13.3182 41.2244C13.3604 40.9749 13.4514 40.7361 13.586 40.5218C13.7206 40.3075 13.8962 40.1218 14.1027 39.9754C14.3091 39.829 14.5425 39.7248 14.7893 39.6687C26.5677 36.9767 36.671 38.1352 44.821 43.1145C45.0371 43.2465 45.225 43.4197 45.3741 43.6243C45.5232 43.8289 45.6305 44.0609 45.6899 44.307C45.7493 44.553 45.7596 44.8084 45.7202 45.0585C45.6809 45.3085 45.5926 45.5484 45.4605 45.7644ZM31.2799 1.17383C14.2033 1.17383 0.359375 15.015 0.359375 32.0886C0.359375 49.164 14.2033 63.0044 31.2799 63.0044C48.3572 63.0044 62.2007 49.164 62.2007 32.0886C62.2007 15.015 48.3572 1.17383 31.2799 1.17383Z" fill="white"/>
<path d="M84.4834 29.7143C79.145 28.441 78.1943 27.5476 78.1943 25.6708C78.1943 23.897 79.8643 22.7038 82.3477 22.7038C84.7551 22.7038 87.1422 23.6101 89.6452 25.4759C89.6826 25.5037 89.7252 25.5238 89.7705 25.5349C89.8158 25.5461 89.8628 25.548 89.9089 25.5408C89.9549 25.5335 89.9991 25.517 90.0387 25.4925C90.0783 25.4679 90.1126 25.4356 90.1396 25.3976L92.7467 21.7237C92.7984 21.6508 92.8202 21.561 92.8078 21.4727C92.7953 21.3843 92.7496 21.304 92.6799 21.2482C89.7017 18.8586 86.3472 17.6968 82.4267 17.6968C76.6623 17.6968 72.6362 21.1555 72.6362 26.1042C72.6362 31.411 76.1092 33.29 82.1114 34.7405C87.2201 35.917 88.0826 36.9027 88.0826 38.6647C88.0826 40.6176 86.3391 41.8314 83.5333 41.8314C80.417 41.8314 77.8752 40.7815 75.0318 38.3199C74.96 38.2604 74.8683 38.2304 74.7752 38.2361C74.7289 38.2397 74.6839 38.2524 74.6427 38.2737C74.6014 38.2949 74.5649 38.3242 74.5352 38.3598L71.6123 41.8373C71.5535 41.9066 71.5242 41.9962 71.5307 42.0868C71.5372 42.1774 71.5789 42.2619 71.6471 42.3221C74.9554 45.2754 79.0243 46.8351 83.4152 46.8351C89.6267 46.8351 93.6407 43.4414 93.6407 38.1892C93.6407 33.7507 90.9881 31.2958 84.4834 29.7143ZM112.203 35.663C112.203 39.4112 109.893 42.0267 106.587 42.0267C103.319 42.0267 100.852 39.2923 100.852 35.663C100.852 32.0345 103.319 29.2997 106.587 29.2997C109.84 29.2997 112.203 31.9751 112.203 35.663ZM107.694 24.4496C105.002 24.4496 102.793 25.5098 100.972 27.6824V25.237C100.972 25.1443 100.935 25.0554 100.869 24.9898C100.804 24.9242 100.715 24.8873 100.622 24.8871H95.842C95.7493 24.8873 95.6605 24.9242 95.595 24.9898C95.5295 25.0554 95.4927 25.1443 95.4927 25.237V52.4084C95.4927 52.6015 95.6493 52.7588 95.842 52.7588H100.622C100.715 52.7585 100.804 52.7214 100.869 52.6558C100.935 52.5901 100.972 52.5012 100.972 52.4084V43.832C102.794 45.8757 105.002 46.8739 107.694 46.8739C112.697 46.8739 117.761 43.0235 117.761 35.663C117.761 28.3011 112.697 24.4496 107.694 24.4496ZM130.742 42.0659C127.315 42.0659 124.732 39.313 124.732 35.663C124.732 31.9979 127.226 29.3377 130.663 29.3377C134.112 29.3377 136.713 32.0906 136.713 35.7431C136.713 39.4079 134.202 42.0659 130.742 42.0659ZM130.742 24.4496C124.299 24.4496 119.252 29.4097 119.252 35.7431C119.252 42.0075 124.265 46.9156 130.663 46.9156C137.129 46.9156 142.192 41.9721 142.192 35.663C142.192 29.375 137.164 24.4496 130.742 24.4496ZM155.95 24.8871H150.69V19.5094C150.69 19.4167 150.653 19.3278 150.588 19.2622C150.522 19.1966 150.433 19.1596 150.34 19.1594H145.561C145.468 19.1595 145.379 19.1964 145.313 19.262C145.248 19.3276 145.211 19.4166 145.21 19.5094V24.8871H142.912C142.819 24.8874 142.73 24.9244 142.665 24.99C142.6 25.0556 142.563 25.1445 142.563 25.237V29.3447C142.563 29.5374 142.719 29.6951 142.912 29.6951H145.21V40.3238C145.21 44.619 147.348 46.7967 151.566 46.7967C153.28 46.7967 154.703 46.4431 156.044 45.6826C156.097 45.6522 156.142 45.6081 156.173 45.5549C156.204 45.5016 156.22 45.4411 156.22 45.3795V41.4682C156.22 41.4086 156.205 41.35 156.176 41.298C156.147 41.2459 156.105 41.2021 156.054 41.1707C156.004 41.1393 155.946 41.1213 155.886 41.1185C155.827 41.1156 155.767 41.128 155.714 41.1544C154.793 41.6177 153.902 41.8314 152.908 41.8314C151.374 41.8314 150.69 41.1352 150.69 39.5747V29.6951H155.95C156.043 29.6948 156.131 29.6577 156.197 29.5921C156.262 29.5264 156.299 29.4374 156.299 29.3447V25.237C156.299 25.1444 156.262 25.0555 156.197 24.9898C156.131 24.9242 156.042 24.8873 155.95 24.8871ZM174.278 24.9077V24.2473C174.278 22.3044 175.022 21.4379 176.694 21.4379C177.69 21.4379 178.491 21.6358 179.387 21.9348C179.44 21.9524 179.496 21.9571 179.551 21.9487C179.606 21.9403 179.658 21.9189 179.703 21.8864C179.748 21.8539 179.784 21.8112 179.809 21.7618C179.834 21.7123 179.847 21.6577 179.847 21.6022V17.5742C179.847 17.4992 179.823 17.4261 179.779 17.3658C179.734 17.3054 179.672 17.261 179.6 17.239C178.653 16.9574 177.441 16.6679 175.627 16.6679C171.211 16.6679 168.878 19.1539 168.878 23.8545V24.866H166.581C166.488 24.8662 166.399 24.9031 166.334 24.9687C166.268 25.0343 166.231 25.1232 166.23 25.216V29.3447C166.23 29.5374 166.388 29.6951 166.581 29.6951H168.878V46.0894C168.878 46.2825 169.033 46.4397 169.226 46.4397H174.006C174.099 46.4396 174.188 46.4027 174.254 46.337C174.32 46.2713 174.357 46.1823 174.357 46.0894V29.6951H178.82L185.657 46.085C184.881 47.8071 184.118 48.1497 183.076 48.1497C182.234 48.1497 181.346 47.8983 180.44 47.4025C180.398 47.3797 180.351 47.3656 180.303 47.3611C180.255 47.3566 180.207 47.3618 180.161 47.3763C180.116 47.392 180.074 47.4168 180.038 47.4492C180.003 47.4817 179.974 47.5211 179.955 47.565L178.334 51.1189C178.297 51.1993 178.292 51.2909 178.32 51.3749C178.348 51.459 178.407 51.5291 178.485 51.5712C180.176 52.4871 181.703 52.878 183.59 52.878C187.12 52.878 189.071 51.2341 190.791 46.8115L199.084 25.3847C199.105 25.3318 199.113 25.2746 199.106 25.218C199.1 25.1615 199.08 25.1074 199.048 25.0604C199.016 25.0133 198.973 24.9748 198.923 24.9482C198.872 24.9216 198.816 24.9077 198.76 24.9077H193.783C193.711 24.9077 193.64 24.9303 193.58 24.9723C193.521 25.0144 193.476 25.0739 193.452 25.1425L188.354 39.7013L182.77 25.1329C182.745 25.0666 182.701 25.0096 182.642 24.9694C182.584 24.9291 182.515 24.9076 182.444 24.9077H174.278ZM163.652 24.8871H158.872C158.779 24.8872 158.69 24.924 158.625 24.9896C158.559 25.0552 158.522 25.1442 158.522 25.237V46.0894C158.522 46.1823 158.559 46.2713 158.625 46.337C158.69 46.4027 158.779 46.4396 158.872 46.4397H163.652C163.745 46.4396 163.834 46.4027 163.9 46.337C163.966 46.2713 164.003 46.1823 164.003 46.0894V25.237C164.003 25.1442 163.966 25.0552 163.9 24.9896C163.834 24.924 163.745 24.8872 163.652 24.8871ZM161.287 15.3921C159.393 15.3921 157.856 16.9252 157.856 18.8187C157.856 20.7133 159.393 22.2479 161.287 22.2479C163.18 22.2479 164.715 20.7133 164.715 18.8187C164.715 16.9252 163.18 15.3921 161.287 15.3921ZM203.361 26.961H202.485V28.0778H203.361C203.798 28.0778 204.059 27.864 204.059 27.5192C204.059 27.156 203.798 26.961 203.361 26.961ZM203.929 28.554L204.881 29.8859H204.078L203.222 28.6644H202.485V29.8859H201.813V26.3556H203.388C204.209 26.3556 204.748 26.7753 204.748 27.4816C204.748 28.0604 204.414 28.4141 203.929 28.554ZM203.183 25.1805C201.46 25.1805 200.156 26.5502 200.156 28.2273C200.156 29.9033 201.451 31.2548 203.166 31.2548C204.888 31.2548 206.194 29.8859 206.194 28.2081C206.194 26.5317 204.898 25.1805 203.183 25.1805ZM203.166 31.5911C201.274 31.5911 199.802 30.072 199.802 28.2273C199.802 26.3826 201.293 24.8461 203.183 24.8461C203.625 24.8443 204.063 24.93 204.472 25.0983C204.881 25.2666 205.252 25.5141 205.565 25.8267C205.878 26.1392 206.126 26.5105 206.294 26.9193C206.463 27.328 206.549 27.766 206.547 28.2081C206.547 30.0532 205.057 31.5911 203.166 31.5911Z" fill="white"/>
</g>
<defs>
<clipPath id="clip0_2499_7114">
<rect width="206.4" height="62.02" fill="white" transform="translate(0.359375 0.984375)"/>
</clipPath>
<clipPath id="clip1_2499_7114">
<rect width="206.4" height="62.02" fill="white" transform="translate(0.359375 0.984375)"/>
</clipPath>
<clipPath id="clip2_2499_7114">
<rect width="206.4" height="62.02" fill="white" transform="translate(28.5469 -43)"/>
</clipPath>
</defs>
</svg>
